<svg width="100" height="100" viewBox="0 0 100 100" fill="none" xmlns="http://www.w3.org/2000/svg">
<g filter="url(#filter0_d)">
<rect x="24" y="20" width="52" height="52" rx="10" fill="white"/>
</g>
<path d="M50.4002 41.2041C47.7685 41.2041 45.6276 43.3451 45.6276 45.9767C45.6276 48.6084 47.7685 50.7494 50.4002 50.7494C53.0315 50.7494 55.1733 48.6084 55.1733 45.9767C55.1733 43.3451 53.0319 41.2041 50.4002 41.2041Z" fill="#F34949"/>
<path d="M45.0962 40.6732C45.6239 40.1459 45.6239 39.2905 45.0962 38.7632C44.569 38.2355 43.7136 38.2355 43.1863 38.7632C39.2092 42.7407 39.2092 49.2125 43.1863 53.1901C43.4501 53.4539 43.7959 53.5859 44.1417 53.5859C44.487 53.5859 44.8328 53.4539 45.0962 53.1905C45.6235 52.6628 45.6235 51.8073 45.0962 51.2802C42.1723 48.3558 42.1723 43.5975 45.0962 40.6732Z" fill="#F34949"/>
<path d="M57.6136 38.763C57.0859 38.2358 56.2313 38.2354 55.7036 38.763C55.1759 39.2907 55.1759 40.1457 55.7036 40.6734C57.125 42.0948 57.908 43.9782 57.908 45.9764C57.908 47.9746 57.125 49.858 55.7036 51.2799C55.1759 51.8072 55.1759 52.6626 55.7036 53.1899C55.9675 53.4537 56.3129 53.5856 56.6586 53.5856C57.0039 53.5856 57.3497 53.4537 57.6136 53.1899C59.5456 51.2579 60.6095 48.6964 60.6095 45.9764C60.6095 43.2565 59.5456 40.695 57.6136 38.763Z" fill="#F34949"/>
<path d="M36.7014 46.0001C36.7014 42.3468 38.1319 38.9047 40.7294 36.3067C41.2571 35.7794 41.2571 34.924 40.7294 34.3967C40.2021 33.8691 39.3467 33.8691 38.8195 34.3967C35.7114 37.5044 34 41.6255 34 46.0001C34 50.3752 35.7114 54.4959 38.8195 57.6035C39.0828 57.8674 39.4287 57.9992 39.7744 57.9992C40.1198 57.9992 40.466 57.8673 40.7294 57.6035C41.2571 57.0758 41.2571 56.2208 40.7294 55.6935C38.132 53.096 36.7014 49.6534 36.7014 46.0001Z" fill="#F34949"/>
<path d="M61.9811 34.3955C61.4535 33.8682 60.5989 33.8682 60.0712 34.3955C59.5435 34.9231 59.5435 35.7786 60.0712 36.3058C65.4157 41.6507 65.4157 50.3478 60.0712 55.6926C59.5435 56.2199 59.5435 57.0753 60.0712 57.6026C60.3351 57.8665 60.6804 57.9983 61.0262 57.9983C61.3719 57.9983 61.7173 57.8664 61.9811 57.6021C68.3792 51.2042 68.3792 40.7935 61.9811 34.3955Z" fill="#F34949"/>
<defs>
<filter id="filter0_d" x="0" y="0" width="100" height="100" filterUnits="userSpaceOnUse" color-interpolation-filters="sRGB">
<feFlood flood-opacity="0" result="BackgroundImageFix"/>
<feColorMatrix in="SourceAlpha" type="matrix" values="0 0 0 0 0 0 0 0 0 0 0 0 0 0 0 0 0 0 127 0"/>
<feOffset dy="4"/>
<feGaussianBlur stdDeviation="12"/>
<feColorMatrix type="matrix" values="0 0 0 0 0 0 0 0 0 0 0 0 0 0 0 0 0 0 0.12 0"/>
<feBlend mode="normal" in2="BackgroundImageFix" result="effect1_dropShadow"/>
<feBlend mode="normal" in="SourceGraphic" in2="effect1_dropShadow" result="shape"/>
</filter>
</defs>
</svg>
