<svg width="100" height="100" viewBox="0 0 100 100" fill="none" xmlns="http://www.w3.org/2000/svg">
<g filter="url(#filter0_d)">
<rect x="24" y="20" width="52" height="52" rx="10" fill="white"/>
</g>
<path d="M58.4021 43.0802C58.0297 42.2695 57.2403 41.766 56.3418 41.766H53.1444L56.9321 35.4149C57.1046 35.1258 57.1084 34.7663 56.9421 34.4736C56.7758 34.1808 56.4651 34 56.1284 34H47.2397C46.8873 34 46.5646 34.1981 46.4052 34.5125L41.7484 43.695C41.2273 44.7182 41.2745 45.9135 41.8745 46.8925C42.4747 47.8715 43.5184 48.4559 44.6666 48.4559H47.9416L44.6849 55.1376C44.2496 56.0213 44.5036 57.0409 45.3026 57.6171C45.6584 57.8737 46.0635 58 46.4655 58C46.9659 58 47.4614 57.8042 47.8503 57.4204C47.8672 57.4036 47.8836 57.3862 47.8992 57.3682L55.1506 49.0228C55.4895 48.6327 55.448 48.0418 55.058 47.7028C54.6678 47.3638 54.0769 47.4053 53.738 47.7954L46.5157 56.1074C46.4876 56.1312 46.4566 56.1422 46.3972 56.0993C46.3234 56.0461 46.3421 56.0083 46.3654 55.961L50.2796 47.9302C50.4209 47.6402 50.4029 47.2978 50.2319 47.0243C50.0609 46.7507 49.7611 46.5846 49.4385 46.5846H44.6666C44.1671 46.5846 43.731 46.3404 43.47 45.9145C43.209 45.4887 43.1893 44.9892 43.4166 44.5427L47.8142 35.8713H54.4809L50.6933 42.2224C50.5208 42.5115 50.517 42.871 50.6833 43.1637C50.8496 43.4564 51.1602 43.6373 51.4969 43.6373H56.3418C56.5653 43.6373 56.6631 43.7776 56.7016 43.8613C56.7409 43.9469 56.7846 44.1166 56.6351 44.2907C56.2984 44.6828 56.3432 45.2735 56.7352 45.6102C57.1273 45.9469 57.7181 45.9021 58.0547 45.5101C58.6428 44.8252 58.7759 43.8941 58.4021 43.0802Z" fill="#1B76BC"/>
<defs>
<filter id="filter0_d" x="0" y="0" width="100" height="100" filterUnits="userSpaceOnUse" color-interpolation-filters="sRGB">
<feFlood flood-opacity="0" result="BackgroundImageFix"/>
<feColorMatrix in="SourceAlpha" type="matrix" values="0 0 0 0 0 0 0 0 0 0 0 0 0 0 0 0 0 0 127 0"/>
<feOffset dy="4"/>
<feGaussianBlur stdDeviation="12"/>
<feColorMatrix type="matrix" values="0 0 0 0 0 0 0 0 0 0 0 0 0 0 0 0 0 0 0.12 0"/>
<feBlend mode="normal" in2="BackgroundImageFix" result="effect1_dropShadow"/>
<feBlend mode="normal" in="SourceGraphic" in2="effect1_dropShadow" result="shape"/>
</filter>
</defs>
</svg>
