<svg width="348" height="861" viewBox="0 0 348 861" fill="none" xmlns="http://www.w3.org/2000/svg">
<rect opacity="0.15" x="582.201" y="568.161" width="410.179" height="410.179" rx="61.5" transform="rotate(135 582.201 568.161)" stroke="url(#paint0_linear)" stroke-width="3"/>
<rect x="354.646" width="389.821" height="389.821" rx="74" transform="rotate(45 354.646 0)" fill="url(#paint1_linear)"/>
<rect x="167.323" y="523.231" width="173.819" height="173.819" rx="25" transform="rotate(-135 167.323 523.231)" stroke="url(#paint2_linear)" stroke-width="2"/>
<rect x="154.839" y="247.263" width="57.1688" height="57.1688" rx="7.74985" transform="rotate(-135 154.839 247.263)" stroke="#FFBE60" stroke-width="2"/>
<rect x="48.8386" y="549.263" width="57.1688" height="57.1688" rx="7.74985" transform="rotate(-135 48.8386 549.263)" stroke="#FFBE60" stroke-width="2"/>
<rect x="378.839" y="417" width="172.306" height="172.306" rx="32.7089" transform="rotate(45 378.839 417)" fill="#FFBE60"/>
<defs>
<linearGradient id="paint0_linear" x1="790.912" y1="568.161" x2="790.912" y2="981.34" gradientUnits="userSpaceOnUse">
<stop stop-color="#3A47D5"/>
<stop offset="1" stop-color="#00D2FF"/>
</linearGradient>
<linearGradient id="paint1_linear" x1="549.556" y1="0" x2="549.556" y2="389.821" gradientUnits="userSpaceOnUse">
<stop stop-color="#00D2FF"/>
<stop offset="1" stop-color="#3A47D5"/>
</linearGradient>
<linearGradient id="paint2_linear" x1="255.232" y1="524.645" x2="255.232" y2="700.464" gradientUnits="userSpaceOnUse">
<stop stop-color="#3A47D5"/>
<stop offset="1" stop-color="#00D2FF"/>
</linearGradient>
</defs>
</svg>
