<svg width="100" height="100" viewBox="0 0 100 100" fill="none" xmlns="http://www.w3.org/2000/svg">
<g filter="url(#filter0_d)">
<rect x="24" y="20" width="52" height="52" rx="10" fill="#1B76BC"/>
</g>
<path d="M61.9976 53.3384C61.9642 52.4101 61.5774 51.5437 60.9088 50.899C59.5995 49.6365 58.5025 48.9077 57.4566 48.6054C56.0154 48.1889 54.6804 48.5676 53.489 49.7312C53.4872 49.7329 53.4855 49.7347 53.4837 49.7365L52.2162 50.9945C51.424 50.548 49.8837 49.5675 48.2196 47.9034L48.0962 47.7801C46.4318 46.1157 45.4514 44.5751 45.0053 43.7838L46.2634 42.5163C46.2652 42.5145 46.267 42.5127 46.2687 42.5109C47.4322 41.3196 47.811 39.9847 47.3945 38.5433C47.0922 37.4974 46.3634 36.4004 45.1009 35.0911C44.4562 34.4226 43.5899 34.0358 42.6615 34.0024C41.7326 33.9689 40.8412 34.2922 40.1499 34.9127L40.123 34.9369C40.1105 34.9481 40.0983 34.9597 40.0864 34.9716C38.7102 36.3478 37.9888 38.2744 38.0001 40.5432C38.0194 44.3974 40.1376 48.805 43.6663 52.3336C44.3317 52.999 45.088 53.6575 45.914 54.2909C46.3248 54.6059 46.9133 54.5283 47.2284 54.1174C47.5435 53.7065 47.4657 53.118 47.0548 52.8029C46.2938 52.2194 45.5998 51.6155 44.9921 51.0079C41.8048 47.8206 39.8919 43.9051 39.8751 40.5339C39.8664 38.7865 40.392 37.3281 41.3953 36.3144L41.4025 36.3079C42.0839 35.6963 43.1155 35.7335 43.7513 36.3927C46.1784 38.9098 46.0027 40.0981 44.9302 41.1979L43.1923 42.9488C42.9198 43.2234 42.8439 43.6372 43.0013 43.9906C43.0454 44.0897 44.1127 46.4482 46.7707 49.1062L46.8941 49.2295C49.5519 51.8872 51.9103 52.9545 52.0094 52.9986C52.3628 53.1561 52.7767 53.0801 53.0512 52.8076L54.8021 51.0697C55.9021 49.9971 57.0904 49.8215 59.6073 52.2486C60.2665 52.8843 60.3038 53.916 59.6922 54.5973L59.6856 54.6047C58.6802 55.5998 57.2372 56.125 55.509 56.125C55.4947 56.125 55.4805 56.125 55.4662 56.1249C54.0847 56.118 52.485 55.7393 50.8401 55.0298C50.3648 54.8247 49.813 55.0439 49.608 55.5193C49.4029 55.9948 49.6221 56.5464 50.0975 56.7515C51.9989 57.5716 53.802 57.9916 55.4568 57.9999C55.4744 58 55.4919 58 55.5094 58C57.7554 58 59.6629 57.2791 61.0284 55.9136C61.0403 55.9017 61.0518 55.8895 61.063 55.877L61.0874 55.85C61.7079 55.1587 62.0311 54.2668 61.9976 53.3384Z" fill="white"/>
<defs>
<filter id="filter0_d" x="0" y="0" width="100" height="100" filterUnits="userSpaceOnUse" color-interpolation-filters="sRGB">
<feFlood flood-opacity="0" result="BackgroundImageFix"/>
<feColorMatrix in="SourceAlpha" type="matrix" values="0 0 0 0 0 0 0 0 0 0 0 0 0 0 0 0 0 0 127 0"/>
<feOffset dy="4"/>
<feGaussianBlur stdDeviation="12"/>
<feColorMatrix type="matrix" values="0 0 0 0 0 0 0 0 0 0 0 0 0 0 0 0 0 0 0.12 0"/>
<feBlend mode="normal" in2="BackgroundImageFix" result="effect1_dropShadow"/>
<feBlend mode="normal" in="SourceGraphic" in2="effect1_dropShadow" result="shape"/>
</filter>
</defs>
</svg>
