<svg width="38" height="38" viewBox="0 0 38 38" fill="none" xmlns="http://www.w3.org/2000/svg">
<circle cx="19" cy="19" r="19" fill="#F3F6FC"/>
<g clip-path="url(#clip0)">
<path d="M24 9H14C11.2386 9 9 11.2386 9 14V24C9 26.7614 11.2386 29 14 29H24C26.7614 29 29 26.7614 29 24V14C29 11.2386 26.7614 9 24 9Z" stroke="#1B76BC" stroke-width="2" stroke-linecap="round" stroke-linejoin="round"/>
<path d="M23 18.3698C23.1234 19.2021 22.9812 20.052 22.5937 20.7988C22.2062 21.5456 21.5931 22.1512 20.8416 22.5295C20.0901 22.9077 19.2384 23.0394 18.4077 22.9057C17.5771 22.7721 16.8097 22.3799 16.2148 21.785C15.6199 21.1901 15.2277 20.4227 15.094 19.592C14.9604 18.7614 15.092 17.9097 15.4703 17.1582C15.8485 16.4067 16.4541 15.7936 17.2009 15.4061C17.9477 15.0186 18.7977 14.8764 19.63 14.9998C20.4789 15.1257 21.2648 15.5213 21.8716 16.1281C22.4785 16.735 22.8741 17.5209 23 18.3698Z" stroke="#1B76BC" stroke-width="2" stroke-linecap="round" stroke-linejoin="round"/>
</g>
<defs>
<clipPath id="clip0">
<rect width="24" height="24" fill="white" transform="translate(7 7)"/>
</clipPath>
</defs>
</svg>
