<svg width="46" height="46" viewBox="0 0 46 46" fill="none" xmlns="http://www.w3.org/2000/svg">
<g clip-path="url(#clip0)">
<path d="M24.1323 1.45189C23.1963 0.515549 21.9515 0 20.6277 0C19.3039 0 18.059 0.515549 17.1231 1.45154C16.1867 2.38788 15.6712 3.63235 15.6712 4.95615C15.6712 5.96373 15.9705 6.92464 16.5257 7.7392L6.8756 31.3692C6.27547 31.1168 5.62516 30.9842 4.95449 30.9842C3.63105 30.9842 2.38622 31.4994 1.44988 32.4353C-0.482466 34.368 -0.482817 37.5122 1.44988 39.4449L6.55342 44.5485C7.48941 45.4845 8.73424 46 10.058 46C11.3822 46 12.6267 45.4845 13.5626 44.5485C14.4986 43.6125 15.0142 42.3676 15.0145 41.0439C15.0145 40.3732 14.8815 39.7229 14.6292 39.1227L19.5373 37.1185L21.4556 39.0368C22.6853 40.2665 24.5994 40.9579 26.4359 40.9579C27.267 40.9579 28.0822 40.8164 28.8108 40.5188L33.515 38.5974C34.8156 38.066 35.6982 37.0841 35.9362 35.9028C36.1741 34.7218 35.7411 33.4742 34.7472 32.4806L33.6294 31.3628L38.2584 29.4723C39.0734 30.0275 40.0343 30.3268 41.0418 30.3268C41.0422 30.3268 41.0422 30.3268 41.0422 30.3268C42.3656 30.3268 43.6105 29.8113 44.5465 28.8753C46.4788 26.9426 46.4788 23.7981 44.5465 21.8657L24.1323 1.45189ZM30.7421 29.6305C30.7375 29.6323 30.733 29.6344 30.7284 29.6362L19.3562 34.281C19.3516 34.2828 19.347 34.2845 19.3428 34.2863L12.9292 36.9058L9.09256 33.0692L18.5567 9.89474L36.1029 27.4413L30.7421 29.6305ZM11.6566 42.6428C11.2299 43.0695 10.662 43.3047 10.058 43.3047C9.45404 43.3047 8.8862 43.0695 8.45909 42.6424L3.35555 37.5392C2.47396 36.6577 2.47396 35.223 3.35555 34.3414C3.78266 33.9143 4.3505 33.6791 4.95449 33.6791C5.55847 33.6791 6.12632 33.9146 6.55342 34.3417L11.6566 39.4449C12.0837 39.872 12.3192 40.4399 12.3192 41.0435C12.3189 41.6478 12.0837 42.2153 11.6566 42.6428ZM32.8415 34.3866C33.1858 34.7309 33.3507 35.0896 33.2939 35.3704C33.2374 35.6515 32.9464 35.9182 32.4958 36.1021L27.7916 38.0236C26.4535 38.57 24.3836 38.1527 23.3616 37.1311L22.2434 36.0133L30.9228 32.4683L32.8415 34.3866ZM42.6404 26.9693C42.2133 27.3964 41.6458 27.6315 41.0422 27.6315C41.0422 27.6315 41.0422 27.6315 41.0418 27.6315C40.4379 27.6315 39.8697 27.396 39.4426 26.9693L19.0287 6.55508V6.55473C18.6016 6.12798 18.3665 5.56049 18.3665 4.9565C18.3665 4.35251 18.6016 3.78467 19.0287 3.35756C19.4558 2.93045 20.0237 2.69531 20.6277 2.69531C21.2316 2.69531 21.7995 2.93045 22.2266 3.35756L42.6404 23.7714C43.522 24.6533 43.522 26.0877 42.6404 26.9693Z" fill="white"/>
<path d="M38.4896 8.85593C38.8342 8.85593 39.1792 8.72432 39.4424 8.46111L45.6027 2.30084C46.1291 1.77441 46.1291 0.921249 45.6027 0.394821C45.0763 -0.131607 44.2231 -0.131607 43.697 0.394821L37.5364 6.55508C37.0103 7.08151 37.0103 7.93468 37.5364 8.46111C37.7996 8.72432 38.1446 8.85593 38.4896 8.85593Z" fill="white"/>
<path d="M32.3652 4.77295C32.7101 4.77295 33.0551 4.64134 33.3183 4.37813L35.396 2.30049C35.9224 1.77441 35.9224 0.921249 35.396 0.394821C34.8699 -0.131607 34.0164 -0.131607 33.49 0.394821L31.4123 2.47246C30.8862 2.99854 30.8862 3.8517 31.4123 4.37813C31.6755 4.64134 32.0205 4.77295 32.3652 4.77295Z" fill="white"/>
<path d="M43.6971 10.6015L41.6194 12.6795C41.093 13.2059 41.093 14.0591 41.6194 14.5855C41.8826 14.8488 42.2273 14.98 42.5723 14.98C42.9173 14.98 43.2622 14.8484 43.5251 14.5855L45.6027 12.5075C46.1292 11.9811 46.1292 11.128 45.6027 10.6015C45.0763 10.0755 44.2231 10.0755 43.6971 10.6015Z" fill="white"/>
</g>
<defs>
<clipPath id="clip0">
<rect width="46" height="46" fill="white"/>
</clipPath>
</defs>
</svg>
