<svg width="100" height="100" viewBox="0 0 100 100" fill="none" xmlns="http://www.w3.org/2000/svg">
<g filter="url(#filter0_d)">
<rect x="24" y="20" width="52" height="52" rx="10" fill="white"/>
</g>
<path d="M39.6282 49.1419C39.1256 49.6102 38.7224 50.175 38.4428 50.8025C38.1633 51.43 38.0129 52.1074 38.0008 52.7942C37.9887 53.4811 38.115 54.1634 38.3723 54.8003C38.6296 55.4373 39.0125 56.0159 39.4983 56.5017C39.9841 56.9875 40.5627 57.3704 41.1997 57.6277C41.8366 57.885 42.5189 58.0113 43.2058 57.9992C43.8926 57.9871 44.57 57.8367 45.1975 57.5572C45.825 57.2776 46.3898 56.8744 46.8581 56.3718C47.816 55.4127 48.3541 54.1125 48.3541 52.7569C48.3541 51.4013 47.816 50.1011 46.8581 49.1419C45.8822 48.216 44.5883 47.6998 43.2431 47.6998C41.8979 47.6998 40.604 48.216 39.6282 49.1419ZM44.4538 53.9676C44.2953 54.1274 44.1067 54.2542 43.8989 54.3408C43.6911 54.4274 43.4682 54.4719 43.2431 54.4719C43.018 54.4719 42.7951 54.4274 42.5873 54.3408C42.3796 54.2542 42.191 54.1274 42.0324 53.9676C41.8726 53.809 41.7458 53.6204 41.6592 53.4127C41.5726 53.2049 41.5281 52.982 41.5281 52.7569C41.5281 52.5318 41.5726 52.3089 41.6592 52.1011C41.7458 51.8933 41.8726 51.7047 42.0324 51.5462C42.191 51.3864 42.3796 51.2595 42.5873 51.173C42.7951 51.0864 43.018 51.0418 43.2431 51.0418C43.4682 51.0418 43.6911 51.0864 43.8989 51.173C44.1067 51.2595 44.2953 51.3864 44.4538 51.5462C44.6136 51.7047 44.7405 51.8933 44.827 52.1011C44.9136 52.3089 44.9582 52.5318 44.9582 52.7569C44.9582 52.982 44.9136 53.2049 44.827 53.4127C44.7405 53.6204 44.6136 53.809 44.4538 53.9676ZM43.2431 40.8207C42.7909 40.8207 42.3572 41.0003 42.0374 41.3201C41.7176 41.6399 41.5379 42.0736 41.5379 42.5259C41.5379 42.9781 41.7176 43.4118 42.0374 43.7316C42.3572 44.0514 42.7909 44.231 43.2431 44.231C45.5043 44.231 47.6729 45.1293 49.2718 46.7282C50.8707 48.3271 51.769 50.4957 51.769 52.7569C51.769 53.2091 51.9486 53.6428 52.2684 53.9626C52.5882 54.2824 53.0219 54.4621 53.4741 54.4621C53.9264 54.4621 54.3601 54.2824 54.6799 53.9626C54.9997 53.6428 55.1793 53.2091 55.1793 52.7569C55.1793 49.5912 53.9218 46.5552 51.6833 44.3167C49.4448 42.0782 46.4088 40.8207 43.2431 40.8207ZM43.2431 34C42.7909 34 42.3572 34.1797 42.0374 34.4994C41.7176 34.8192 41.5379 35.2529 41.5379 35.7052C41.5379 36.1574 41.7176 36.5911 42.0374 36.9109C42.3572 37.2307 42.7909 37.4103 43.2431 37.4103C47.3133 37.4103 51.2167 39.0272 54.0948 41.9052C56.9728 44.7833 58.5897 48.6867 58.5897 52.7569C58.5897 53.2091 58.7693 53.6428 59.0891 53.9626C59.4089 54.2824 59.8426 54.4621 60.2948 54.4621C60.7471 54.4621 61.1808 54.2824 61.5006 53.9626C61.8203 53.6428 62 53.2091 62 52.7569C62 47.7822 60.0238 43.0114 56.5062 39.4938C52.9886 35.9762 48.2178 34 43.2431 34Z" fill="#1B76BC"/>
<defs>
<filter id="filter0_d" x="0" y="0" width="100" height="100" filterUnits="userSpaceOnUse" color-interpolation-filters="sRGB">
<feFlood flood-opacity="0" result="BackgroundImageFix"/>
<feColorMatrix in="SourceAlpha" type="matrix" values="0 0 0 0 0 0 0 0 0 0 0 0 0 0 0 0 0 0 127 0"/>
<feOffset dy="4"/>
<feGaussianBlur stdDeviation="12"/>
<feColorMatrix type="matrix" values="0 0 0 0 0 0 0 0 0 0 0 0 0 0 0 0 0 0 0.12 0"/>
<feBlend mode="normal" in2="BackgroundImageFix" result="effect1_dropShadow"/>
<feBlend mode="normal" in="SourceGraphic" in2="effect1_dropShadow" result="shape"/>
</filter>
</defs>
</svg>
