<svg width="1536" height="1536" viewBox="0 0 1536 1536" fill="none" xmlns="http://www.w3.org/2000/svg">
<rect width="1536" height="1536" rx="32" fill="white"/>
<path fill-rule="evenodd" clip-rule="evenodd" d="M922.259 307.2H384.797H384.751C342.382 307.225 308.043 341.579 308.043 383.954C308.043 384.151 308.044 384.348 308.046 384.545H307.951V1153.64H308.06C308.905 1195.28 342.913 1228.78 384.751 1228.8H384.797H535.641L461.85 953.407C458.419 940.604 466.017 927.444 478.82 924.013L489.819 921.066L572.748 873.186C574.425 871.286 576.434 869.621 578.751 868.284L615.151 847.268V792C615.151 778.745 625.896 768 639.151 768H783.151C796.406 768 807.151 778.745 807.151 792V907.674L907.383 1081.28C917.953 1085.79 923.972 1097.35 921.305 1108.78C922.252 1115.29 920.474 1121.94 916.409 1127.1L889.16 1228.8H922.259H1075.95H1152.71H1152.75C1195.12 1228.77 1229.46 1194.42 1229.46 1152.05C1229.46 1132.4 1222.08 1114.48 1209.94 1100.9L1210.35 1100.49L986.005 876.142C1114.43 847.167 1210.35 732.385 1210.35 595.2C1210.35 436.142 1081.41 307.2 922.351 307.2H922.259ZM768.752 633.6C768.752 676.015 734.368 710.4 691.952 710.4C649.537 710.4 615.152 676.015 615.152 633.6C615.152 591.184 649.537 556.8 691.952 556.8C734.368 556.8 768.752 591.184 768.752 633.6ZM538.398 806.423C538.398 827.644 521.195 844.846 499.975 844.846C478.754 844.846 461.552 827.644 461.552 806.423C461.552 785.203 478.754 768 499.975 768C521.195 768 538.398 785.203 538.398 806.423ZM922.259 998.4C938.165 998.4 951.059 985.506 951.059 969.6C951.059 953.694 938.165 940.8 922.259 940.8C906.354 940.8 893.459 953.694 893.459 969.6C893.459 985.506 906.354 998.4 922.259 998.4Z" fill="url(#paint0_linear)"/>
<ellipse cx="1094.76" cy="755.477" rx="162.816" ry="162.816" fill="white"/>
<ellipse cx="1094.76" cy="755.477" rx="125.952" ry="125.952" fill="#F34949"/>
<defs>
<linearGradient id="paint0_linear" x1="695.112" y1="435.2" x2="365.489" y2="1228.78" gradientUnits="userSpaceOnUse">
<stop stop-color="#70C7E3"/>
<stop offset="1" stop-color="#2882C4"/>
</linearGradient>
</defs>
</svg>
