<svg width="52" height="52" viewBox="0 0 52 52" fill="none" xmlns="http://www.w3.org/2000/svg">
<g clip-path="url(#clip0)">
<path d="M51.9133 47.0226C51.6852 45.9241 50.6096 45.2187 49.5119 45.4464C48.4133 45.6742 47.7076 46.7493 47.9357 47.8478C47.9468 47.9026 47.9039 47.9355 47.9023 47.9367H28.0183C28.0231 47.9161 28.0294 47.8958 28.0338 47.8752C29.0089 43.1776 33.194 39.7681 37.9845 39.7681C40.1304 39.7681 42.178 40.4239 43.9065 41.6648C44.8178 42.319 46.0869 42.1107 46.7415 41.1995C47.3953 40.2882 47.187 39.019 46.2758 38.3648C45.5168 37.8197 44.7142 37.3556 43.8775 36.9743C45.1379 35.5711 45.9064 33.7176 45.9064 31.6871C45.9064 27.3187 42.3529 23.7652 37.9845 23.7652C33.6166 23.7652 30.0631 27.3187 30.0631 31.6871C30.0631 33.7219 30.8347 35.5798 32.1003 36.9842C30.9747 37.496 29.9139 38.155 28.9498 38.95C27.793 39.9045 26.7996 41.034 26.0006 42.2849C25.2015 41.034 24.2081 39.9045 23.0513 38.95C22.1051 38.1696 21.066 37.5206 19.9639 37.0128C21.1914 35.6171 21.9381 33.789 21.9381 31.7887C21.9381 27.4203 18.3846 23.8668 14.0162 23.8668C9.6482 23.8668 6.0947 27.4203 6.0947 31.7887C6.0947 33.789 6.84134 35.6171 8.06882 37.0128C6.96671 37.5206 5.92728 38.1696 4.98148 38.95C2.48209 41.0122 0.744024 43.8885 0.0878347 47.0496C-0.165675 48.2704 0.139409 49.5244 0.924932 50.4897C1.70569 51.4489 2.86216 51.9992 4.09836 51.9992H47.9023C49.1318 51.9992 50.2851 51.4482 51.0667 50.4881C51.8593 49.5137 52.168 48.2505 51.9133 47.0226ZM37.9845 27.8277C40.1126 27.8277 41.8439 29.5591 41.8439 31.6871C41.8439 33.8152 40.1126 35.5465 37.9845 35.5465C35.8569 35.5465 34.1256 33.8152 34.1256 31.6871C34.1256 29.5591 35.8569 27.8277 37.9845 27.8277ZM14.0162 27.9293C16.1442 27.9293 17.8756 29.6606 17.8756 31.7887C17.8756 33.9167 16.1442 35.648 14.0162 35.648C11.8881 35.648 10.1568 33.9167 10.1568 31.7887C10.1568 29.6606 11.8881 27.9293 14.0162 27.9293ZM4.08765 47.9359C4.08725 47.9359 4.05591 47.9208 4.06543 47.8752C5.04059 43.1776 9.22568 39.7681 14.0162 39.7681C18.8067 39.7681 22.9918 43.1776 23.9669 47.8752C23.9713 47.8958 23.9776 47.9161 23.9828 47.9367H4.09836C4.09202 47.9367 4.08844 47.9359 4.08765 47.9359ZM32.0943 9.64804C32.0943 8.52649 33.0036 7.61719 34.1256 7.61719C35.2471 7.61719 36.1568 8.52649 36.1568 9.64804C36.1568 10.77 35.2471 11.6793 34.1256 11.6793C33.0036 11.6793 32.0943 10.77 32.0943 9.64804ZM23.9693 9.64804C23.9693 8.52649 24.8786 7.61719 26.0006 7.61719C27.1225 7.61719 28.0318 8.52649 28.0318 9.64804C28.0318 10.77 27.1225 11.6793 26.0006 11.6793C24.8786 11.6793 23.9693 10.77 23.9693 9.64804ZM15.8443 9.64804C15.8443 8.52649 16.7536 7.61719 17.8756 7.61719C18.9975 7.61719 19.9068 8.52649 19.9068 9.64804C19.9068 10.77 18.9975 11.6793 17.8756 11.6793C16.7536 11.6793 15.8443 10.77 15.8443 9.64804ZM15.2349 19.2965H16.3497C16.3386 19.623 16.2509 20.0074 16.0363 20.4664C15.6809 21.225 15.8276 22.124 16.4061 22.7302C16.9845 23.336 17.8752 23.5252 18.65 23.2058C20.7054 22.3584 22.3574 21.0461 23.575 19.2965H28.3591C29.5973 20.9897 31.2596 22.2965 33.3154 23.1908C33.5765 23.3042 33.8518 23.3594 34.1248 23.3594C34.6834 23.3594 35.2308 23.1289 35.6244 22.6988C36.21 22.0585 36.3242 21.1171 35.9088 20.3553C35.6736 19.9241 35.5708 19.5809 35.5518 19.2965H36.7662C41.246 19.2965 44.8912 15.6517 44.8912 11.1719V8.125C44.8912 3.64474 41.246 0 36.7662 0H15.2353C10.7551 0 7.11033 3.64474 7.11033 8.125V11.1719C7.11033 15.6517 10.7547 19.2965 15.2349 19.2965ZM11.1724 8.125C11.1724 5.88467 12.995 4.0625 15.2349 4.0625H36.7662C39.0061 4.0625 40.8283 5.88467 40.8283 8.125V11.1715C40.8283 13.4118 39.0061 15.234 36.7662 15.234H34.1256C33.4464 15.234 32.812 15.5736 32.4355 16.1385C32.2296 16.4472 32.032 16.8022 31.8705 17.201C31.6278 16.9018 31.4068 16.5817 31.2068 16.2393C30.8422 15.6168 30.1749 15.234 29.4537 15.234H22.4459C21.7036 15.234 21.0204 15.6386 20.6642 16.2897C20.4836 16.6198 20.2849 16.9276 20.0671 17.2141C19.9592 16.907 19.8255 16.6043 19.6664 16.3071C19.3133 15.6466 18.6246 15.2344 17.8756 15.2344H15.2349C12.995 15.2344 11.1724 13.4118 11.1724 11.1719V8.125Z" fill="#3D81E4"/>
</g>
<defs>
<clipPath id="clip0">
<rect width="52" height="52" fill="white"/>
</clipPath>
</defs>
</svg>
